<?xml version="1.0" encoding="UTF-8" standalone="no"?>
<!-- Created with Inkscape (http://www.inkscape.org/) -->

<svg
   xmlns:dc="http://purl.org/dc/elements/1.1/"
   xmlns:cc="http://creativecommons.org/ns#"
   xmlns:rdf="http://www.w3.org/1999/02/22-rdf-syntax-ns#"
   xmlns:svg="http://www.w3.org/2000/svg"
   xmlns="http://www.w3.org/2000/svg"
   version="1.1"
   width="738.69574"
   height="738.52252"
   viewBox="-212.734 -223.442 738.69574 738.52252"
   id="svg12627"
   xml:space="preserve"
   style="overflow:visible"><metadata
   id="metadata12635"><rdf:RDF><cc:Work
       rdf:about=""><dc:format>image/svg+xml</dc:format><dc:type
         rdf:resource="http://purl.org/dc/dcmitype/StillImage" /><dc:title></dc:title></cc:Work></rdf:RDF></metadata>
<defs
   id="defs12629">
</defs>
<path
   d="m 475.54105,107.80864 c -2.089,-13.100006 -9.185,-16.822006 -26.297,-22.314006 -13.011,-4.16 -100.154,-31.926999 -100.154,-31.926999 0,0 -60.707,-22.925 -105.732,9.517999 -6.069,4.357 -12.329,9.337 -18.651,14.656 5.312,-6.323 10.271,-12.606 14.635,-18.675999 32.351,-45.074001 9.313,-105.757001 9.313,-105.757001 0,0 -27.912,-87.082974 -32.107,-100.088974 -5.526,-17.112 -9.26,-24.192 -22.349,-26.247 -13.086,-2.066 -18.827,3.529 -29.327,18.116 -7.989,11.083 -61.32001,85.371988 -61.32001,85.371988 0,0 -40.562999,50.667986 -23.624999,103.507987 2.276,7.119001 5.071,14.618001 8.185,22.272 -4.381,-7.011999 -8.821,-13.668999 -13.245,-19.693 -32.881997,-44.6879998 -97.7,-41.5429998 -97.7,-41.5429998 0,0 -91.445991,-0.363 -105.118991,-0.394 -17.971,-0.042 -25.861,1.333 -31.869,13.136 -6.009,11.8139988 -2.449,18.9999988 8.169,33.4950008 8.07,11.025999 62.245997,84.706004 62.245997,84.706004 0,0 35.660998,54.23202 91.1339955,54.46102 7.454,0.031 15.4439985,-0.305 23.6599985,-0.896 -7.998,1.991 -15.6889985,4.156 -22.7579985,6.499 -52.6700005,17.464 -69.7039955,80.085 -69.7039955,80.085 0,0 -28.601,86.86 -32.861,99.848 -5.585997,17.081 -6.726997,25.012 2.645,34.371 9.384,9.361 17.308,8.212 34.38,2.588 12.987994,-4.265 99.792995,-33.025 99.792995,-33.025 0,0 62.597999,-17.159 79.955998,-69.86 2.332,-7.072 4.478,-14.74 6.456,-22.731 -0.566,8.204 -0.888,16.171 -0.846,23.627 0.329,55.479 54.62301,91.038 54.62301,91.038 0,0 73.771,54.032 84.801,62.1 14.525,10.584 21.712,14.121 33.515,8.098 11.809,-6.024 13.155,-13.922 13.08,-31.9 -0.047,-13.661 -0.574,-105.112 -0.574,-105.112 0,0 3.038,-64.825 -41.719,-97.62 -6.017,-4.401 -12.659,-8.832 -19.663,-13.187 7.646,3.092 15.131,5.862 22.234,8.112 52.869,16.847 103.459,-23.803 103.459,-23.803 0,0 74.208,-53.45801 85.274,-61.47602 14.556,-10.533 20.144,-16.283 18.062,-29.356 z m -314.956,-67.332004 c 9.973,1.565 14.925,22.781998 11.044,47.377998 -3.864,24.595006 -15.092,43.258006 -25.072,41.690006 -9.97901,-1.578 -14.92801,-22.785 -11.05101,-47.380006 3.872,-24.600999 15.09501,-43.271999 25.07901,-41.687998 z M 32.843042,105.70064 c 4.581,-9.005006 26.278,-7.153006 48.475999,4.137 22.195999,11.281 36.479999,27.729 31.907999,36.72001 -4.584,9.01001 -26.280999,7.15701 -48.483999,-4.117 -22.196997,-11.28901 -36.478,-27.73601 -31.899999,-36.74001 z m 67.360998,122.66502 c -17.591999,17.618 -37.650999,26.121 -44.803997,18.98 -7.140999,-7.125 1.333,-27.2 18.923998,-44.825 17.586,-17.627 37.642999,-26.13 44.790999,-18.988 7.141,7.133 -1.323,27.207 -18.911,44.833 z m 96.88901,41.299 c -9,4.592 -25.464,-9.66 -36.782,-31.838 -11.331,-22.172 -13.222,-43.886 -4.229,-48.478 8.988,-4.585 25.459,9.674 36.786,31.838 11.327,22.172 13.218,43.878 4.225,48.478 z m 23.359,-102.71 c -24.591,3.919 -45.813,-0.994 -47.406,-10.96 -1.576,-9.97901 17.066,-21.24102 41.649,-25.14802 24.599,-3.928 45.813,0.983 47.397,10.96301 1.593,9.96001 -17.05,21.22801 -41.64,25.14501 z"
   id="path12631"
   style="fill:#ffffff;fill-opacity:1" />
</svg>