<?xml version="1.0" encoding="UTF-8" standalone="no"?>
<!-- Created with Inkscape (http://www.inkscape.org/) -->

<svg
   xmlns:dc="http://purl.org/dc/elements/1.1/"
   xmlns:cc="http://creativecommons.org/ns#"
   xmlns:rdf="http://www.w3.org/1999/02/22-rdf-syntax-ns#"
   xmlns:svg="http://www.w3.org/2000/svg"
   xmlns="http://www.w3.org/2000/svg"
   version="1.2"
   width="585"
   height="585"
   viewBox="-212.734 -223.442 585 585"
   id="svg12627"
   xml:space="preserve"
   style="overflow:visible">
 <metadata
   id="metadata12635">
  <rdf:RDF>
   <cc:Work
   rdf:about="">
    <dc:format>image/svg+xml</dc:format>
    <dc:type
   rdf:resource="http://purl.org/dc/dcmitype/StillImage" />
    <dc:title></dc:title>
   </cc:Work>
  </rdf:RDF>
 </metadata>
 <defs
   id="defs12629" />
 <g
   id="text10633"
   xml:space="preserve"
   style="font-size:3.96958756px;font-style:normal;font-variant:normal;font-weight:normal;font-stretch:normal;line-height:125%;letter-spacing:0px;word-spacing:0px;fill:#000000;fill-opacity:1;stroke:none;font-family:DroidSans;-inkscape-font-specification:DroidSans" />
 <g
   id="icon">
  <rect
   width="584.64569"
   height="584.64569"
   rx="90"
   x="-212.73399"
   y="-223.08766"
   id="rect11186"
   style="fill:#8c2850;fill-opacity:1;fill-rule:evenodd;stroke:none" />
  <g
   id="text10637"
   xml:space="preserve"
   style="font-size:5px;font-style:normal;font-variant:normal;font-weight:normal;font-stretch:normal;text-align:start;line-height:125%;letter-spacing:0px;word-spacing:0px;text-anchor:start;fill:#ffffff;fill-opacity:1;stroke:none;font-family:DroidSans;-inkscape-font-specification:DroidSans">
   <text
   x="-191.97597"
   y="315.91403"
   id="tspan10639"
   style="font-size:144px;font-style:normal;font-variant:normal;font-weight:bold;font-stretch:normal;text-align:start;text-anchor:start;fill:#ffffff;fill-opacity:1;font-family:Droid Sans;-inkscape-font-specification:Droid Sans Bold">Cobbler</text>

  </g>
  <path
   d="m 336.53197,-30.25288 c -1.21426,-7.614894 -5.33886,-9.777655 -15.28536,-12.970173 -7.56276,-2.417687 -58.21538,-18.557532 -58.21538,-18.557532 0,0 -35.28651,-13.325607 -61.45769,5.531624 -3.52766,2.532815 -7.16635,5.427462 -10.84106,8.51947 3.08766,-3.674958 5.97011,-7.327073 8.50673,-10.855837 18.8043,-26.199838 5.41327,-61.471942 5.41327,-61.471942 0,0 -16.22411,-50.61793 -18.66248,-58.17801 -3.21204,-9.94577 -5.38247,-14.06114 -12.99057,-15.25628 -7.60635,-1.20062 -10.94335,2.05129 -17.04657,10.53056 -4.64368,6.44168 -35.64281,49.6229 -35.64281,49.6229 0,0 -23.577615,29.45174 -13.73224,60.165327 1.32296,4.138212 2.94757,8.496628 4.7576,12.945502 -2.5465,-4.076079 -5.12728,-7.944744 -7.69876,-11.447011 -19.112969,-25.975065 -56.789008,-24.146723 -56.789008,-24.146723 0,0 -53.1537936,-0.211068 -61.101352,-0.229342 -10.445795,-0.01828 -15.031932,0.774829 -18.524127,7.635909 -3.492806,6.866562 -1.423508,11.043149 4.748289,19.468507 4.69076,6.409705 36.1810564,49.236398 36.1810564,49.236398 0,0 20.7282576,31.523138 52.9724266,31.65654 4.332716,0.01827 8.976962,-0.178174 13.7526,-0.520817 -4.648927,1.156762 -9.119377,2.414946 -13.2283,3.777294 -30.614922,10.151364 -40.516054,46.550081 -40.516054,46.550081 0,0 -16.6246016,50.488195 -19.1007476,58.037305 -3.246918,9.92841 -3.910147,14.53901 1.537399,19.97835 5.454566,5.44117 10.0604696,4.77325 19.9837156,1.50489 7.549363,-2.4789 58.00556,-19.19622 58.00556,-19.19622 0,0 36.385632,-9.9741 46.475122,-40.607286 1.3555,-4.109886 2.60289,-8.566984 3.75262,-13.212308 -0.32897,4.768676 -0.51616,9.399379 -0.49175,13.733125 0.19124,32.247719 31.75011,52.916849 31.75011,52.916849 0,0 42.88006,31.40709 49.29133,36.09627 8.44279,6.15204 12.6203,8.2079 19.4809,4.70746 6.8641,-3.50227 7.64647,-8.09277 7.60287,-18.54292 -0.0271,-7.94017 -0.33363,-61.097324 -0.33363,-61.097324 0,0 1.76585,-37.679746 -24.24957,-56.74165 -3.49744,-2.5584 -7.35815,-5.13416 -11.42928,-7.665148 4.4443,1.797276 8.79502,3.40724 12.9237,4.714765 30.73057,9.792275 60.13647,-13.835459 60.13647,-13.835459 0,0 43.13404,-31.0726775 49.56626,-35.733533 8.46081,-6.122798 11.70888,-9.465165 10.4987,-17.063611 z M 153.461,-69.389996 c 5.79691,0.909145 8.67529,13.242457 6.41942,27.538428 -2.24599,14.295972 -8.77236,25.144499 -14.57333,24.232613 -5.80038,-0.916455 -8.67704,-13.243373 -6.4235,-27.539344 2.25064,-14.299624 8.77411,-25.152721 14.57741,-24.231697 z m -74.251167,37.911825 c 2.662721,-5.233755 15.274297,-4.157399 28.177087,2.404896 12.90163,6.556812 21.20432,16.117917 18.5468,21.3434476 -2.66448,5.2374095 -15.27607,4.1601405 -28.181761,-2.3930176 C 84.849777,-16.684226 76.548812,-26.244416 79.209833,-31.478171 z M 118.364,39.821684 C 108.13847,50.062592 96.479018,55.004872 92.321278,50.853869 88.17048,46.712916 93.096085,35.043873 103.32101,24.79931 113.54305,14.553834 125.20133,9.6106395 129.35618,13.762557 c 4.15078,4.146435 -0.76901,15.814564 -10.99218,26.059127 z m 56.3176,24.006012 c -5.23132,2.668959 -14.80118,-5.614774 -21.37986,-18.506366 -6.58625,-12.887938 -7.6854,-25.509072 -2.45816,-28.178031 5.22437,-2.665304 14.79828,5.622997 21.38219,18.505453 6.58393,12.887938 7.6831,25.504503 2.45583,28.178944 z M 188.25923,4.1265275 c -14.29374,2.277889 -26.62922,-0.578381 -27.55516,-6.3704152 -0.91607,-5.801171 9.91976,-12.3470193 24.20885,-14.6175983 14.29839,-2.283372 26.62921,0.571071 27.54993,6.372242 0.92595,5.7892927 -9.91047,12.3387956 -24.20362,14.6157715 z"
   id="path12631"
   style="fill:#ffffff;fill-opacity:1;stroke:none" />
  <g
   id="text11157"
   xml:space="preserve"
   style="font-size:144px;font-style:normal;font-variant:normal;font-weight:normal;font-stretch:normal;line-height:125%;letter-spacing:0px;word-spacing:0px;fill:#ffffff;fill-opacity:1;stroke:none;font-family:DroidSans;-inkscape-font-specification:DroidSans">
   <text
   x="-178.49751"
   y="184.02341"
   id="tspan11159"
   style="font-style:normal;font-variant:normal;font-weight:normal;font-stretch:normal;fill:#ffffff;fill-opacity:1;font-family:Droid Sans;-inkscape-font-specification:Droid Sans">Pi</text>

  </g>
 </g>
</svg>