<?xml version="1.0" encoding="UTF-8" standalone="no"?>
<!-- Created with Inkscape (http://www.inkscape.org/) -->

<svg
   xmlns:dc="http://purl.org/dc/elements/1.1/"
   xmlns:cc="http://creativecommons.org/ns#"
   xmlns:rdf="http://www.w3.org/1999/02/22-rdf-syntax-ns#"
   xmlns:svg="http://www.w3.org/2000/svg"
   xmlns="http://www.w3.org/2000/svg"
   xmlns:inkscape="http://www.inkscape.org/namespaces/inkscape"
   version="1.1"
   width="153"
   height="40.5"
   id="svg13995">
  <defs
     id="defs3">
    <inkscape:path-effect
       effect="spiro"
       id="path-effect14926" />
  </defs>
  <metadata
     id="metadata4">
    <rdf:RDF>
      <cc:Work
         rdf:about="">
        <dc:format>image/svg+xml</dc:format>
        <dc:type
           rdf:resource="http://purl.org/dc/dcmitype/StillImage" />
        <dc:title></dc:title>
      </cc:Work>
    </rdf:RDF>
  </metadata>
  <g
     transform="translate(0,-1011.862)"
     id="layer1"
     style="display:inline">
    <g
       id="g12366">
      <g
         transform="translate(-4.5014603,888.11336)"
         id="silkscreen"
         style="display:inline">
        <path
           d="m 9.0014603,159.74862 0,-31.5 65.2499997,0 0,4.5 13.5,0 0,-4.5 65.25,0 0,31.5 z"
           id="path14906"
           style="fill:none;stroke:#ffffff;stroke-width:1.25;stroke-linecap:butt;stroke-linejoin:miter;stroke-miterlimit:4;stroke-opacity:1;stroke-dasharray:none;display:inline" />
        <path
           d="m 132.75,134.55 2.25,-3.6 2.25,3.6 z"
           id="path4994"
           style="fill:#ffffff;fill-opacity:1;stroke:#ffffff;stroke-width:0.44999999;stroke-linecap:butt;stroke-linejoin:miter;stroke-miterlimit:4;stroke-opacity:1;stroke-dasharray:none" />
      </g>
      <g
         transform="translate(-4.5014603,996.11336)"
         id="copper1"
         style="fill:none;stroke:#f7bd13;stroke-opacity:1;display:inline">
        <path
           d="m 137.25,31.5 a 2.25,2.25 0 1 1 -4.5,0 2.25,2.25 0 1 1 4.5,0 z"
           transform="translate(-18,0)"
           id="connector5pad"
           style="fill:none;stroke:#f7bd13;stroke-width:1.79999995;stroke-linecap:round;stroke-linejoin:miter;stroke-miterlimit:4;stroke-opacity:1;stroke-dasharray:none;display:inline" />
        <path
           d="m 137.25,31.5 a 2.25,2.25 0 1 1 -4.5,0 2.25,2.25 0 1 1 4.5,0 z"
           transform="translate(-27,0)"
           id="connector7pad"
           style="fill:none;stroke:#f7bd13;stroke-width:1.79999995;stroke-linecap:round;stroke-linejoin:miter;stroke-miterlimit:4;stroke-opacity:1;stroke-dasharray:none;display:inline" />
        <path
           d="m 137.25,31.5 a 2.25,2.25 0 1 1 -4.5,0 2.25,2.25 0 1 1 4.5,0 z"
           transform="translate(-36,0)"
           id="connector9pad"
           style="fill:none;stroke:#f7bd13;stroke-width:1.79999995;stroke-linecap:round;stroke-linejoin:miter;stroke-miterlimit:4;stroke-opacity:1;stroke-dasharray:none;display:inline" />
        <path
           d="m 137.25,31.5 a 2.25,2.25 0 1 1 -4.5,0 2.25,2.25 0 1 1 4.5,0 z"
           transform="translate(-63,0)"
           id="connector15pad"
           style="fill:none;stroke:#f7bd13;stroke-width:1.79999995;stroke-linecap:round;stroke-linejoin:miter;stroke-miterlimit:4;stroke-opacity:1;stroke-dasharray:none;display:inline" />
        <path
           d="m 137.25,31.5 a 2.25,2.25 0 1 1 -4.5,0 2.25,2.25 0 1 1 4.5,0 z"
           transform="translate(-72,0)"
           id="connector17pad"
           style="fill:none;stroke:#f7bd13;stroke-width:1.79999995;stroke-linecap:round;stroke-linejoin:miter;stroke-miterlimit:4;stroke-opacity:1;stroke-dasharray:none;display:inline" />
        <path
           d="m 137.25,31.5 a 2.25,2.25 0 1 1 -4.5,0 2.25,2.25 0 1 1 4.5,0 z"
           transform="translate(-81,0)"
           id="connector19pad"
           style="fill:none;stroke:#f7bd13;stroke-width:1.79999995;stroke-linecap:round;stroke-linejoin:miter;stroke-miterlimit:4;stroke-opacity:1;stroke-dasharray:none;display:inline" />
        <path
           d="m 137.25,31.5 a 2.25,2.25 0 1 1 -4.5,0 2.25,2.25 0 1 1 4.5,0 z"
           transform="translate(-45,0)"
           id="connector11pad"
           style="fill:none;stroke:#f7bd13;stroke-width:1.79999995;stroke-linecap:round;stroke-linejoin:miter;stroke-miterlimit:4;stroke-opacity:1;stroke-dasharray:none;display:inline" />
        <path
           d="m 137.25,31.5 a 2.25,2.25 0 1 1 -4.5,0 2.25,2.25 0 1 1 4.5,0 z"
           transform="translate(-54,0)"
           id="connector13pad"
           style="fill:none;stroke:#f7bd13;stroke-width:1.79999995;stroke-linecap:round;stroke-linejoin:miter;stroke-miterlimit:4;stroke-opacity:1;stroke-dasharray:none;display:inline" />
        <path
           d="m 137.25,31.5 a 2.25,2.25 0 1 1 -4.5,0 2.25,2.25 0 1 1 4.5,0 z"
           transform="translate(-99,0)"
           id="connector23pad"
           style="fill:none;stroke:#f7bd13;stroke-width:1.79999995;stroke-linecap:round;stroke-linejoin:miter;stroke-miterlimit:4;stroke-opacity:1;stroke-dasharray:none;display:inline" />
        <path
           d="m 137.25,31.5 a 2.25,2.25 0 1 1 -4.5,0 2.25,2.25 0 1 1 4.5,0 z"
           transform="translate(-108,0)"
           id="connector25pad"
           style="fill:none;stroke:#f7bd13;stroke-width:1.79999995;stroke-linecap:round;stroke-linejoin:miter;stroke-miterlimit:4;stroke-opacity:1;stroke-dasharray:none;display:inline" />
        <path
           d="m 137.25,31.5 a 2.25,2.25 0 1 1 -4.5,0 2.25,2.25 0 1 1 4.5,0 z"
           transform="translate(-90,0)"
           id="connector21pad"
           style="fill:none;stroke:#f7bd13;stroke-width:1.79999995;stroke-linecap:round;stroke-linejoin:miter;stroke-miterlimit:4;stroke-opacity:1;stroke-dasharray:none;display:inline" />
        <path
           d="m 137.25,31.5 a 2.25,2.25 0 1 1 -4.5,0 2.25,2.25 0 1 1 4.5,0 z"
           transform="translate(-18,9)"
           id="connector6pad"
           style="fill:none;stroke:#f7bd13;stroke-width:1.79999995;stroke-linecap:round;stroke-linejoin:miter;stroke-miterlimit:4;stroke-opacity:1;stroke-dasharray:none;display:inline" />
        <path
           d="m 137.25,31.5 a 2.25,2.25 0 1 1 -4.5,0 2.25,2.25 0 1 1 4.5,0 z"
           transform="translate(-27,9)"
           id="connector8pad"
           style="fill:none;stroke:#f7bd13;stroke-width:1.79999995;stroke-linecap:round;stroke-linejoin:miter;stroke-miterlimit:4;stroke-opacity:1;stroke-dasharray:none;display:inline" />
        <path
           d="m 137.25,31.5 a 2.25,2.25 0 1 1 -4.5,0 2.25,2.25 0 1 1 4.5,0 z"
           transform="translate(-36,9)"
           id="connector10pad"
           style="fill:none;stroke:#f7bd13;stroke-width:1.79999995;stroke-linecap:round;stroke-linejoin:miter;stroke-miterlimit:4;stroke-opacity:1;stroke-dasharray:none;display:inline" />
        <path
           d="m 137.25,31.5 a 2.25,2.25 0 1 1 -4.5,0 2.25,2.25 0 1 1 4.5,0 z"
           transform="translate(-63,9)"
           id="connector16pad"
           style="fill:none;stroke:#f7bd13;stroke-width:1.79999995;stroke-linecap:round;stroke-linejoin:miter;stroke-miterlimit:4;stroke-opacity:1;stroke-dasharray:none;display:inline" />
        <path
           d="m 137.25,31.5 a 2.25,2.25 0 1 1 -4.5,0 2.25,2.25 0 1 1 4.5,0 z"
           transform="translate(-72,9)"
           id="connector18pad"
           style="fill:none;stroke:#f7bd13;stroke-width:1.79999995;stroke-linecap:round;stroke-linejoin:miter;stroke-miterlimit:4;stroke-opacity:1;stroke-dasharray:none;display:inline" />
        <path
           d="m 137.25,31.5 a 2.25,2.25 0 1 1 -4.5,0 2.25,2.25 0 1 1 4.5,0 z"
           transform="translate(-81,9)"
           id="connector20pad"
           style="fill:none;stroke:#f7bd13;stroke-width:1.79999995;stroke-linecap:round;stroke-linejoin:miter;stroke-miterlimit:4;stroke-opacity:1;stroke-dasharray:none;display:inline" />
        <path
           d="m 137.25,31.5 a 2.25,2.25 0 1 1 -4.5,0 2.25,2.25 0 1 1 4.5,0 z"
           transform="translate(-45,9)"
           id="connector12pad"
           style="fill:none;stroke:#f7bd13;stroke-width:1.79999995;stroke-linecap:round;stroke-linejoin:miter;stroke-miterlimit:4;stroke-opacity:1;stroke-dasharray:none;display:inline" />
        <path
           d="m 137.25,31.5 a 2.25,2.25 0 1 1 -4.5,0 2.25,2.25 0 1 1 4.5,0 z"
           transform="translate(-54,9)"
           id="connector14pad"
           style="fill:none;stroke:#f7bd13;stroke-width:1.79999995;stroke-linecap:round;stroke-linejoin:miter;stroke-miterlimit:4;stroke-opacity:1;stroke-dasharray:none;display:inline" />
        <path
           d="m 137.25,31.5 a 2.25,2.25 0 1 1 -4.5,0 2.25,2.25 0 1 1 4.5,0 z"
           transform="translate(-99,9)"
           id="connector24pad"
           style="fill:none;stroke:#f7bd13;stroke-width:1.79999995;stroke-linecap:round;stroke-linejoin:miter;stroke-miterlimit:4;stroke-opacity:1;stroke-dasharray:none;display:inline" />
        <path
           d="m 137.25,31.5 a 2.25,2.25 0 1 1 -4.5,0 2.25,2.25 0 1 1 4.5,0 z"
           transform="translate(-108,9)"
           id="connector26pad"
           style="fill:none;stroke:#f7bd13;stroke-width:1.79999995;stroke-linecap:round;stroke-linejoin:miter;stroke-miterlimit:4;stroke-opacity:1;stroke-dasharray:none;display:inline" />
        <path
           d="m 137.25,31.5 a 2.25,2.25 0 1 1 -4.5,0 2.25,2.25 0 1 1 4.5,0 z"
           transform="translate(-90,9)"
           id="connector22pad"
           style="fill:none;stroke:#f7bd13;stroke-width:1.79999995;stroke-linecap:round;stroke-linejoin:miter;stroke-miterlimit:4;stroke-opacity:1;stroke-dasharray:none;display:inline" />
        <path
           d="m 137.25,31.5 a 2.25,2.25 0 1 1 -4.5,0 2.25,2.25 0 1 1 4.5,0 z"
           transform="translate(0,9)"
           id="connector2pad"
           style="fill:none;stroke:#f7bd13;stroke-width:1.79999995;stroke-linecap:round;stroke-linejoin:miter;stroke-miterlimit:4;stroke-opacity:1;stroke-dasharray:none;display:inline" />
        <path
           d="m 137.25,31.5 a 2.25,2.25 0 1 1 -4.5,0 2.25,2.25 0 1 1 4.5,0 z"
           transform="translate(-9,9)"
           id="connector4pad"
           style="fill:none;stroke:#f7bd13;stroke-width:1.79999995;stroke-linecap:round;stroke-linejoin:miter;stroke-miterlimit:4;stroke-opacity:1;stroke-dasharray:none;display:inline" />
        <rect
           width="4.5"
           height="4.5"
           x="132.75"
           y="29.25"
           id="rect4984"
           style="fill:none;stroke:#f7bd13;stroke-width:1.79999995;stroke-linecap:round;stroke-linejoin:miter;stroke-miterlimit:4;stroke-opacity:1;stroke-dasharray:none;display:inline" />
        <path
           d="m 137.25,31.5 a 2.25,2.25 0 1 1 -4.5,0 2.25,2.25 0 1 1 4.5,0 z"
           id="connector1pad"
           style="fill:none;stroke:#f7bd13;stroke-width:1.79999995;stroke-linecap:round;stroke-linejoin:miter;stroke-miterlimit:4;stroke-opacity:1;stroke-dasharray:none" />
        <path
           d="m 137.25,31.5 a 2.25,2.25 0 1 1 -4.5,0 2.25,2.25 0 1 1 4.5,0 z"
           transform="translate(-9,0)"
           id="connector3pad"
           style="fill:none;stroke:#f7bd13;stroke-width:1.79999995;stroke-linecap:round;stroke-linejoin:miter;stroke-miterlimit:4;stroke-opacity:1;stroke-dasharray:none" />
      </g>
      <g
         transform="translate(-4.5,996.112)"
         id="copper0"
         style="fill:none;stroke:#f7bd13;stroke-opacity:1;display:inline">
        <path
           d="m 137.25,31.5 a 2.25,2.25 0 1 1 -4.5,0 2.25,2.25 0 1 1 4.5,0 z"
           transform="translate(-18,0)"
           id="connector5pad"
           style="fill:none;stroke:#f7bd13;stroke-width:1.79999995;stroke-linecap:round;stroke-linejoin:miter;stroke-miterlimit:4;stroke-opacity:1;stroke-dasharray:none;display:inline" />
        <path
           d="m 137.25,31.5 a 2.25,2.25 0 1 1 -4.5,0 2.25,2.25 0 1 1 4.5,0 z"
           transform="translate(-27,0)"
           id="connector7pad"
           style="fill:none;stroke:#f7bd13;stroke-width:1.79999995;stroke-linecap:round;stroke-linejoin:miter;stroke-miterlimit:4;stroke-opacity:1;stroke-dasharray:none;display:inline" />
        <path
           d="m 137.25,31.5 a 2.25,2.25 0 1 1 -4.5,0 2.25,2.25 0 1 1 4.5,0 z"
           transform="translate(-36,0)"
           id="connector9pad"
           style="fill:none;stroke:#f7bd13;stroke-width:1.79999995;stroke-linecap:round;stroke-linejoin:miter;stroke-miterlimit:4;stroke-opacity:1;stroke-dasharray:none;display:inline" />
        <path
           d="m 137.25,31.5 a 2.25,2.25 0 1 1 -4.5,0 2.25,2.25 0 1 1 4.5,0 z"
           transform="translate(-63,0)"
           id="connector15pad"
           style="fill:none;stroke:#f7bd13;stroke-width:1.79999995;stroke-linecap:round;stroke-linejoin:miter;stroke-miterlimit:4;stroke-opacity:1;stroke-dasharray:none;display:inline" />
        <path
           d="m 137.25,31.5 a 2.25,2.25 0 1 1 -4.5,0 2.25,2.25 0 1 1 4.5,0 z"
           transform="translate(-72,0)"
           id="connector17pad"
           style="fill:none;stroke:#f7bd13;stroke-width:1.79999995;stroke-linecap:round;stroke-linejoin:miter;stroke-miterlimit:4;stroke-opacity:1;stroke-dasharray:none;display:inline" />
        <path
           d="m 137.25,31.5 a 2.25,2.25 0 1 1 -4.5,0 2.25,2.25 0 1 1 4.5,0 z"
           transform="translate(-81,0)"
           id="connector19pad"
           style="fill:none;stroke:#f7bd13;stroke-width:1.79999995;stroke-linecap:round;stroke-linejoin:miter;stroke-miterlimit:4;stroke-opacity:1;stroke-dasharray:none;display:inline" />
        <path
           d="m 137.25,31.5 a 2.25,2.25 0 1 1 -4.5,0 2.25,2.25 0 1 1 4.5,0 z"
           transform="translate(-45,0)"
           id="connector11pad"
           style="fill:none;stroke:#f7bd13;stroke-width:1.79999995;stroke-linecap:round;stroke-linejoin:miter;stroke-miterlimit:4;stroke-opacity:1;stroke-dasharray:none;display:inline" />
        <path
           d="m 137.25,31.5 a 2.25,2.25 0 1 1 -4.5,0 2.25,2.25 0 1 1 4.5,0 z"
           transform="translate(-54,0)"
           id="connector13pad"
           style="fill:none;stroke:#f7bd13;stroke-width:1.79999995;stroke-linecap:round;stroke-linejoin:miter;stroke-miterlimit:4;stroke-opacity:1;stroke-dasharray:none;display:inline" />
        <path
           d="m 137.25,31.5 a 2.25,2.25 0 1 1 -4.5,0 2.25,2.25 0 1 1 4.5,0 z"
           transform="translate(-99,0)"
           id="connector23pad"
           style="fill:none;stroke:#f7bd13;stroke-width:1.79999995;stroke-linecap:round;stroke-linejoin:miter;stroke-miterlimit:4;stroke-opacity:1;stroke-dasharray:none;display:inline" />
        <path
           d="m 137.25,31.5 a 2.25,2.25 0 1 1 -4.5,0 2.25,2.25 0 1 1 4.5,0 z"
           transform="translate(-108,0)"
           id="connector25pad"
           style="fill:none;stroke:#f7bd13;stroke-width:1.79999995;stroke-linecap:round;stroke-linejoin:miter;stroke-miterlimit:4;stroke-opacity:1;stroke-dasharray:none;display:inline" />
        <path
           d="m 137.25,31.5 a 2.25,2.25 0 1 1 -4.5,0 2.25,2.25 0 1 1 4.5,0 z"
           transform="translate(-90,0)"
           id="connector21pad"
           style="fill:none;stroke:#f7bd13;stroke-width:1.79999995;stroke-linecap:round;stroke-linejoin:miter;stroke-miterlimit:4;stroke-opacity:1;stroke-dasharray:none;display:inline" />
        <path
           d="m 137.25,31.5 a 2.25,2.25 0 1 1 -4.5,0 2.25,2.25 0 1 1 4.5,0 z"
           transform="translate(-18,9)"
           id="connector6pad"
           style="fill:none;stroke:#f7bd13;stroke-width:1.79999995;stroke-linecap:round;stroke-linejoin:miter;stroke-miterlimit:4;stroke-opacity:1;stroke-dasharray:none;display:inline" />
        <path
           d="m 137.25,31.5 a 2.25,2.25 0 1 1 -4.5,0 2.25,2.25 0 1 1 4.5,0 z"
           transform="translate(-27,9)"
           id="connector8pad"
           style="fill:none;stroke:#f7bd13;stroke-width:1.79999995;stroke-linecap:round;stroke-linejoin:miter;stroke-miterlimit:4;stroke-opacity:1;stroke-dasharray:none;display:inline" />
        <path
           d="m 137.25,31.5 a 2.25,2.25 0 1 1 -4.5,0 2.25,2.25 0 1 1 4.5,0 z"
           transform="translate(-36,9)"
           id="connector10pad"
           style="fill:none;stroke:#f7bd13;stroke-width:1.79999995;stroke-linecap:round;stroke-linejoin:miter;stroke-miterlimit:4;stroke-opacity:1;stroke-dasharray:none;display:inline" />
        <path
           d="m 137.25,31.5 a 2.25,2.25 0 1 1 -4.5,0 2.25,2.25 0 1 1 4.5,0 z"
           transform="translate(-63,9)"
           id="connector16pad"
           style="fill:none;stroke:#f7bd13;stroke-width:1.79999995;stroke-linecap:round;stroke-linejoin:miter;stroke-miterlimit:4;stroke-opacity:1;stroke-dasharray:none;display:inline" />
        <path
           d="m 137.25,31.5 a 2.25,2.25 0 1 1 -4.5,0 2.25,2.25 0 1 1 4.5,0 z"
           transform="translate(-72,9)"
           id="connector18pad"
           style="fill:none;stroke:#f7bd13;stroke-width:1.79999995;stroke-linecap:round;stroke-linejoin:miter;stroke-miterlimit:4;stroke-opacity:1;stroke-dasharray:none;display:inline" />
        <path
           d="m 137.25,31.5 a 2.25,2.25 0 1 1 -4.5,0 2.25,2.25 0 1 1 4.5,0 z"
           transform="translate(-81,9)"
           id="connector20pad"
           style="fill:none;stroke:#f7bd13;stroke-width:1.79999995;stroke-linecap:round;stroke-linejoin:miter;stroke-miterlimit:4;stroke-opacity:1;stroke-dasharray:none;display:inline" />
        <path
           d="m 137.25,31.5 a 2.25,2.25 0 1 1 -4.5,0 2.25,2.25 0 1 1 4.5,0 z"
           transform="translate(-45,9)"
           id="connector12pad"
           style="fill:none;stroke:#f7bd13;stroke-width:1.79999995;stroke-linecap:round;stroke-linejoin:miter;stroke-miterlimit:4;stroke-opacity:1;stroke-dasharray:none;display:inline" />
        <path
           d="m 137.25,31.5 a 2.25,2.25 0 1 1 -4.5,0 2.25,2.25 0 1 1 4.5,0 z"
           transform="translate(-54,9)"
           id="connector14pad"
           style="fill:none;stroke:#f7bd13;stroke-width:1.79999995;stroke-linecap:round;stroke-linejoin:miter;stroke-miterlimit:4;stroke-opacity:1;stroke-dasharray:none;display:inline" />
        <path
           d="m 137.25,31.5 a 2.25,2.25 0 1 1 -4.5,0 2.25,2.25 0 1 1 4.5,0 z"
           transform="translate(-99,9)"
           id="connector24pad"
           style="fill:none;stroke:#f7bd13;stroke-width:1.79999995;stroke-linecap:round;stroke-linejoin:miter;stroke-miterlimit:4;stroke-opacity:1;stroke-dasharray:none;display:inline" />
        <path
           d="m 137.25,31.5 a 2.25,2.25 0 1 1 -4.5,0 2.25,2.25 0 1 1 4.5,0 z"
           transform="translate(-108,9)"
           id="connector26pad"
           style="fill:none;stroke:#f7bd13;stroke-width:1.79999995;stroke-linecap:round;stroke-linejoin:miter;stroke-miterlimit:4;stroke-opacity:1;stroke-dasharray:none;display:inline" />
        <path
           d="m 137.25,31.5 a 2.25,2.25 0 1 1 -4.5,0 2.25,2.25 0 1 1 4.5,0 z"
           transform="translate(-90,9)"
           id="connector22pad"
           style="fill:none;stroke:#f7bd13;stroke-width:1.79999995;stroke-linecap:round;stroke-linejoin:miter;stroke-miterlimit:4;stroke-opacity:1;stroke-dasharray:none;display:inline" />
        <path
           d="m 137.25,31.5 a 2.25,2.25 0 1 1 -4.5,0 2.25,2.25 0 1 1 4.5,0 z"
           transform="translate(0,9)"
           id="connector2pad"
           style="fill:none;stroke:#f7bd13;stroke-width:1.79999995;stroke-linecap:round;stroke-linejoin:miter;stroke-miterlimit:4;stroke-opacity:1;stroke-dasharray:none;display:inline" />
        <path
           d="m 137.25,31.5 a 2.25,2.25 0 1 1 -4.5,0 2.25,2.25 0 1 1 4.5,0 z"
           transform="translate(-9,9)"
           id="connector4pad"
           style="fill:none;stroke:#f7bd13;stroke-width:1.79999995;stroke-linecap:round;stroke-linejoin:miter;stroke-miterlimit:4;stroke-opacity:1;stroke-dasharray:none;display:inline" />
        <rect
           width="4.5"
           height="4.5"
           x="132.75"
           y="29.25"
           id="rect4984-3"
           style="fill:none;stroke:#f7bd13;stroke-width:1.79999995;stroke-linecap:round;stroke-linejoin:miter;stroke-miterlimit:4;stroke-opacity:1;stroke-dasharray:none;display:inline" />
        <path
           d="m 137.25,31.5 a 2.25,2.25 0 1 1 -4.5,0 2.25,2.25 0 1 1 4.5,0 z"
           id="connector1pad"
           style="fill:none;stroke:#f7bd13;stroke-width:1.79999995;stroke-linecap:round;stroke-linejoin:miter;stroke-miterlimit:4;stroke-opacity:1;stroke-dasharray:none" />
        <path
           d="m 137.25,31.5 a 2.25,2.25 0 1 1 -4.5,0 2.25,2.25 0 1 1 4.5,0 z"
           transform="translate(-9,0)"
           id="connector3pad"
           style="fill:none;stroke:#f7bd13;stroke-width:1.79999995;stroke-linecap:round;stroke-linejoin:miter;stroke-miterlimit:4;stroke-opacity:1;stroke-dasharray:none" />
      </g>
    </g>
  </g>
</svg>
